HIERARCHY
ROOT Hips
{
	OFFSET 0.000000 0.000000 0.000000
	CHANNELS 6 Xposition Yposition Zposition Zrotation Yrotation Xrotation 
	JOINT LHipJoint
	{
		OFFSET 0.000000 0.000000 0.000000
		CHANNELS 3 Zrotation Yrotation Xrotation
		JOINT LeftUpLeg
		{
			OFFSET 1.363060 -1.794630 0.839290
			CHANNELS 3 Zrotation Yrotation Xrotation
			JOINT LeftLeg
			{
				OFFSET 2.448110 -6.726130 0.000000
				CHANNELS 3 Zrotation Yrotation Xrotation
				JOINT LeftFoot
				{
					OFFSET 2.562200 -7.039590 0.000000
					CHANNELS 3 Zrotation Yrotation Xrotation
					JOINT LeftToeBase
					{
						OFFSET 0.157640 -0.433110 2.322550
						CHANNELS 3 Zrotation Yrotation Xrotation
						End Site
						{
							OFFSET 0.000000 0.000000 0.000000
						}
					}
				}
			}
		}
	}
	JOINT RHipJoint
	{
		OFFSET 0.000000 0.000000 0.000000
		CHANNELS 3 Zrotation Yrotation Xrotation
		JOINT RightUpLeg
		{
			OFFSET -1.305520 -1.794630 0.839290
			CHANNELS 3 Zrotation Yrotation Xrotation
			JOINT RightLeg
			{
				OFFSET -2.542530 -6.985550 0.000000
				CHANNELS 3 Zrotation Yrotation Xrotation
				JOINT RightFoot
				{
					OFFSET -2.568260 -7.056230 0.000000
					CHANNELS 3 Zrotation Yrotation Xrotation
					JOINT RightToeBase
					{
						OFFSET -0.164730 -0.452590 2.363150
						CHANNELS 3 Zrotation Yrotation Xrotation
						End Site
						{
							OFFSET 0.000000 0.000000 0.000000
						}
					}
				}
			}
		}
	}
}
MOTION
Frames: 11
Frame Time: 0.008333
2.388880 16.534583 -1.138774 -175.353358 -80.202646 -158.961027 -8.924025 -0.986570 0.451942 -12.495997 0.317182 -54.841882 -2.783006 1.009206 23.010346 0.448561 2.299008 2.780305 0.889300 0.000001 -21.856300 10.994601 -2.334375 -3.246415 2.166635 -7.495384 -10.017572 1.255493 -2.561939 32.872217 0.669694 11.270477 10.983397 3.292001 -0.000000 -88.024700
2.214762 16.516623 -1.155428 -178.212629 -80.283017 -156.219231 -8.842681 -1.017132 0.220179 -13.108352 0.192953 -55.107808 -2.665816 1.218742 25.518713 0.531158 2.716421 2.256850 0.930000 0.000000 -20.847700 11.240306 -2.319019 -3.252819 1.286768 -7.686039 -10.928203 1.039762 -2.793388 35.253786 0.554417 11.557306 12.700677 3.771000 0.000000 -87.858100
2.046120 16.508199 -1.168679 179.237905 -80.342962 -153.779575 -8.734720 -1.051138 -0.001664 -13.633007 0.012005 -55.141711 -2.560803 1.365532 27.659159 0.622104 3.142081 1.419684 0.943400 0.000000 -20.370100 11.486361 -2.270906 -3.259065 0.497740 -7.745575 -11.898181 0.814178 -3.013514 37.678540 0.405426 11.630753 14.620244 4.241899 0.000000 -86.902100
1.882437 16.508762 -1.177363 177.114050 -80.372224 -151.763551 -8.615741 -1.083186 -0.210636 -14.058261 -0.198326 -54.951109 -2.474024 1.457759 29.420433 0.720858 3.566080 0.322862 0.923299 0.000000 -20.363100 11.714963 -2.189217 -3.268942 -0.176411 -7.685559 -12.901844 0.586745 -3.215086 40.112619 0.226115 11.457153 16.673985 4.654100 -0.000001 -85.120700
1.723011 16.517529 -1.180712 175.472507 -80.369440 -150.238035 -8.501955 -1.111108 -0.403800 -14.378808 -0.413951 -54.545777 -2.407387 1.503874 30.802853 0.826384 3.983137 -0.952787 0.868800 0.000000 -20.742600 11.911109 -2.078377 -3.284852 -0.722534 -7.530106 -13.915440 0.366350 -3.393953 42.520751 0.021698 11.004468 18.775364 4.945700 -0.000001 -82.571999
1.566943 16.533560 -1.178388 174.329183 -80.337226 -149.224534 -8.406526 -1.134842 -0.579742 -14.595368 -0.614822 -53.941394 -2.359481 1.512000 31.817136 0.936774 4.391588 -2.312640 0.784000 -0.000000 -21.400199 12.064856 -1.945214 -3.309008 -1.136566 -7.308131 -14.920052 0.160511 -3.548831 44.867010 -0.201762 10.241965 20.828291 5.051600 -0.000000 -79.429800
1.413167 16.555848 -1.170650 173.658906 -80.281212 -148.700164 -8.337828 -1.154407 -0.737080 -14.716105 -0.785362 -53.159657 -2.326757 1.489602 32.484894 1.048714 4.790094 -3.659494 0.677300 0.000000 -22.203700 12.172891 -1.798206 -3.340962 -1.421973 -7.048155 -15.903166 -0.026080 -3.680679 47.117384 -0.438388 9.144454 22.735580 4.913799 -0.000000 -75.967800
1.260669 16.583366 -1.158012 173.420030 -80.206291 -148.620158 -8.299635 -1.169788 -0.875990 -14.753454 -0.912484 -52.230625 -2.304769 1.443976 32.838015 1.157853 5.176165 -4.905652 0.560000 -0.000000 -23.006800 12.236560 -1.644771 -3.379172 -1.586481 -6.771811 -16.858647 -0.192100 -3.791628 49.241334 -0.683122 7.698669 24.406375 4.492100 -0.000000 -72.498899
1.108667 16.615227 -1.141452 173.545737 -80.118533 -148.914973 -8.291652 -1.179798 -0.996064 -14.725342 -0.986352 -51.188903 -2.289392 1.381777 32.916726 1.259166 5.544123 -5.981945 0.443900 0.000000 -23.675500 12.261465 -1.491979 -3.418875 -1.641831 -6.493711 -17.785999 -0.338910 -3.884547 51.215574 -0.931626 5.913221 25.756857 3.774300 0.000000 -69.295800
0.956473 16.650616 -1.122197 173.956347 -80.024431 -149.499136 -8.310544 -1.182450 -1.096832 -14.652843 -1.001036 -50.070683 -2.277603 1.308656 32.764947 1.347935 5.886029 -6.843178 0.340100 0.000000 -24.117600 12.255752 -1.345912 -3.453895 -1.603513 -6.222842 -18.689473 -0.469356 -3.962794 53.024546 -1.179741 3.827021 26.712359 2.783900 -0.000000 -66.525300
0.803566 16.688832 -1.101411 174.585267 -79.928421 -150.293185 -8.351772 -1.176694 -1.180372 -14.553692 -0.952143 -48.915251 -2.267875 1.229953 32.429484 1.420442 6.191355 -7.472321 0.256600 0.000000 -24.297199 12.226604 -1.209919 -3.480501 -1.484674 -5.961056 -19.578899 -0.587013 -4.029675 54.659772 -1.422757 1.512128 27.210270 1.582000 -0.000000 -64.228200
